# xmcd CD database file
#
# Track frame offsets:
#	183
#	12670
#	26793
#	38245
#	52630
#	66138
#	77188
#	94545
#	108808
#	127583
#	141498
#	154320
#	168908
#	176755
#
# Disc length: 2501 seconds
#
# Revision: 0
# Processed by: cddbd v1.4PL0 Copyright (c) Steve Scherf et al.
# Submitted via: Feurio! 1.65.5ß - http://www.feurio.com
#
DISCID=af09c30e
DTITLE=Major Dundee - The Best Of The Major Dundee Band
DYEAR=1900
DGENRE=
TTITLE0=The Longer The Distance
TTITLE1=Knowing We're In Love
TTITLE2=I Bought A Fiddle Today
TTITLE3=Roll-On Wheels
TTITLE4=Sand In My Boots
TTITLE5=One Armed Bandit
TTITLE6=Crazy Lovers
TTITLE7=Red River Rosie
TTITLE8=Jeffrey
TTITLE9=You Get Too Big For Your Boots
TTITLE10=Bayou Love
TTITLE11=My Letter
TTITLE12=Sweet Jennies House
TTITLE13=Until You're Here Again
EXTD=
EXTT0=
EXTT1=
EXTT2=
EXTT3=
EXTT4=
EXTT5=
EXTT6=
EXTT7=
EXTT8=
EXTT9=
EXTT10=
EXTT11=
EXTT12=
EXTT13=
PLAYORDER=
